<?xml version="1.0" encoding="UTF-8" standalone="no" ?>
<!DOCTYPE svg PUBLIC "-//W3C//DTD SVG 1.1//EN" "http://www.w3.org/Graphics/SVG/1.1/DTD/svg11.dtd">
<svg xmlns="http://www.w3.org/2000/svg" xmlns:xlink="http://www.w3.org/1999/xlink" version="1.1" width="500" height="500" viewBox="0 0 500 500" xml:space="preserve">
<desc>Created with Fabric.js 3.6.3</desc>
<defs>
</defs>
<g transform="matrix(3.312564774866364 0 0 3.312564774866364 250.2161675096013 175.5)"  >
<g style=""   >
		<g transform="matrix(1 0 0 1 0 22.656250000000004)" clip-path="url(#CLIPPATH_2391)"  >
<linearGradient id="SVGID_2389" gradientUnits="userSpaceOnUse" gradientTransform="matrix(1 0 0 1 12.975000000000001 10)"  x1="0" y1="0" x2="74.05000000000001" y2="80">
<stop offset="0%" style="stop-color:rgb(81,80,79);stop-opacity: 1"/>
<stop offset="50%" style="stop-color:rgb(147,149,152);stop-opacity: 1"/>
<stop offset="100%" style="stop-color:rgb(81,80,79);stop-opacity: 1"/>
</linearGradient>
<clipPath id="CLIPPATH_2391" >
	<rect transform="matrix(1 0 0 1 0 -22.656250000000004)" x="-37.025000000000006" y="-17.343749999999996" rx="0" ry="0" width="74.05000000000001" height="34.68749999999999" />
</clipPath>
<path style="stroke: none; stroke-width: 0; stroke-dasharray: none; stroke-linecap: butt; stroke-dashoffset: 0; stroke-linejoin: miter; stroke-miterlimit: 4; fill: url(#SVGID_2389); fill-rule: nonzero; opacity: 1;"  transform=" translate(-50.00000000000001, -50)" d="M 18 42 c -6.7 6.7 -6.7 17.5 0 24.2 c 6.7 6.7 17.6 6.7 24.3 0 l 2.1 -2.1 L 41.7 90 h 16.6 l -2.7 -26 l 2.2 2.2 c 6.7 6.7 17.5 6.7 24.2 0 c 6.7 -6.7 6.7 -17.5 0 -24.2 l -7.8 -7.8 L 50 10 L 25.8 34.2 L 18 42 z" stroke-linecap="round" />
</g>
</g>
</g>
<g transform="matrix(1 0 0 1 249.5699999999999 192.88254531408847)" style=""  ><path fill="#737373" opacity="1" d="M25.58-24.30Q23.23-24.20 22.17-23.79Q21.11-23.38 20.71-22.27Q20.31-21.16 20.31-18.71L20.31-18.71L20.31 13.53Q20.31 15.98 20.71 17.09Q21.11 18.20 22.17 18.61Q23.23 19.02 25.58 19.12L25.58 19.12L25.58 20.42Q22.53 20.23 17.33 20.23L17.33 20.23Q11.74 20.23 9.01 20.42L9.01 20.42L9.01 19.12Q11.36 19.02 12.41 18.61Q13.46 18.20 13.85 17.09Q14.25 15.98 14.25 13.53L14.25 13.53L14.25-21.25L-1.40 20.74L-2.44 20.74L-18.82-21.44L-18.82 12.87Q-18.82 15.37-18.38 16.64Q-17.93 17.91-16.71 18.47Q-15.49 19.02-12.92 19.12L-12.92 19.12L-12.92 20.42Q-15.23 20.23-19.55 20.23L-19.55 20.23Q-23.42 20.23-25.58 20.42L-25.58 20.42L-25.58 19.12Q-23.33 19.02-22.23 18.47Q-21.14 17.91-20.73 16.64Q-20.31 15.37-20.31 12.87L-20.31 12.87L-20.31-18.71Q-20.31-21.16-20.71-22.27Q-21.11-23.38-22.17-23.79Q-23.23-24.20-25.58-24.30L-25.58-24.30L-25.58-25.60Q-23.45-25.41-19.55-25.41L-19.55-25.41Q-16.12-25.41-14.00-25.60L-14.00-25.60L0.29 12.10L14.25-25.41L17.33-25.41Q22.53-25.41 25.58-25.60L25.58-25.60L25.58-24.30Z"/></g><g transform="matrix(1 -2.4493e-16 2.4493e-16 1 249.56999999999994 254.82399999999996)" style=""  ><path fill="#737373" opacity="1" d="M-76.81 10.99L-73.48 10.99L-73.48 0.32L-64.73 0.32L-64.73 10.99L-61.41 10.99L-61.41-13.51L-64.73-13.51L-64.73-3.01L-73.48-3.01L-73.48-13.51L-79.61-13.51L-79.61-10.18L-76.81-10.18L-76.81 10.99Z"/><path fill="#737373" opacity="1" d="M-51.29 3.29C-51.29 7.84-47.79 11.34-43.24 11.34C-38.69 11.34-35.19 7.84-35.19 3.29L-35.19-5.81C-35.19-10.36-38.69-13.86-43.24-13.86C-47.79-13.86-51.29-10.36-51.29-5.81ZM-38.52 3.29C-38.52 5.92-40.62 8.02-43.24 8.02C-45.87 8.02-47.97 5.92-47.97 3.29L-47.97-5.81C-47.97-8.43-45.87-10.53-43.24-10.53C-40.62-10.53-38.52-8.43-38.52-5.81Z"/><path fill="#737373" opacity="1" d="M-10.73 4.69L-14.05 4.69L-14.05 7.67L-21.75 7.67L-21.75-13.51L-25.08-13.51L-25.08 10.99L-10.73 10.99Z"/><path fill="#737373" opacity="1" d="M-2.01 7.67L-4.81 7.67L-4.81 10.99L4.46 10.99C8.84 10.99 12.16 7.67 12.16 3.29L12.16-5.81C12.16-10.18 8.84-13.51 4.46-13.51L-4.81-13.51L-4.81-10.18L-2.01-10.18ZM1.31-10.18L4.46-10.18C6.91-10.18 8.84-8.26 8.84-5.81L8.84 3.29C8.84 5.74 6.91 7.67 4.46 7.67L1.31 7.67Z"/><path fill="#737373" opacity="1" d="M22.98-13.51L20.18-7.91L22.28-7.91L26.13-13.51Z"/><path fill="#737373" opacity="1" d="M49.54 7.67L38.17 7.67L38.17 0.32L46.39 0.32L46.39-3.01L38.17-3.01L38.17-10.18L49.54-10.18L49.54-13.51L34.84-13.51L34.84 10.99L49.54 10.99Z"/><path fill="#737373" opacity="1" d="M76.81 7.67L76.81-13.51L72.78-13.51L67.36-3.01L61.93-13.51L57.91-13.51L57.91 10.99L61.23 10.99L61.23-8.08L65.61 0.49L69.11 0.49L73.48-8.08L73.48 10.99L79.61 10.99L79.61 7.67Z"/></g><g transform="matrix(3.3184031951121793 0 0 3.3184031951121793 250 327.8680639022436)"  >
<g style=""   >
		<g transform="matrix(1 0 0 1 0 -23.4655222177157)" clip-path="url(#CLIPPATH_2392)"  >
<linearGradient id="SVGID_2390" gradientUnits="userSpaceOnUse" gradientTransform="matrix(1 0 0 1 12.975000000000001 10)"  x1="0" y1="0" x2="74.05000000000001" y2="80">
<stop offset="0%" style="stop-color:rgb(81,80,79);stop-opacity: 1"/>
<stop offset="50%" style="stop-color:rgb(147,149,152);stop-opacity: 1"/>
<stop offset="100%" style="stop-color:rgb(81,80,79);stop-opacity: 1"/>
</linearGradient>
<clipPath id="CLIPPATH_2392" >
	<rect transform="matrix(1 0 0 1 0 23.465522217715698)" x="-37.025000000000006" y="-16.53447778228431" rx="0" ry="0" width="74.05000000000001" height="33.06895556456862" />
</clipPath>
<path style="stroke: none; stroke-width: 0; stroke-dasharray: none; stroke-linecap: butt; stroke-dashoffset: 0; stroke-linejoin: miter; stroke-miterlimit: 4; fill: url(#SVGID_2390); fill-rule: nonzero; opacity: 1;"  transform=" translate(-50.00000000000001, -50)" d="M 18 42 c -6.7 6.7 -6.7 17.5 0 24.2 c 6.7 6.7 17.6 6.7 24.3 0 l 2.1 -2.1 L 41.7 90 h 16.6 l -2.7 -26 l 2.2 2.2 c 6.7 6.7 17.5 6.7 24.2 0 c 6.7 -6.7 6.7 -17.5 0 -24.2 l -7.8 -7.8 L 50 10 L 25.8 34.2 L 18 42 z" stroke-linecap="round" />
</g>
</g>
</g>
</svg>